HIERARCHY
ROOT hip
{
  OFFSET 0 0 0
  CHANNELS 6 Xposition Yposition Zposition Zrotation Yrotation Xrotation
  JOINT abdomen
  {
    OFFSET 0 20.6881 -0.73152
    CHANNELS 3 Zrotation Xrotation Yrotation
    JOINT chest
    {
      OFFSET 0 11.7043 -0.48768
      CHANNELS 3 Zrotation Xrotation Yrotation
      JOINT neck
      {
        OFFSET 0 22.1894 -2.19456
        CHANNELS 3 Zrotation Xrotation Yrotation
        JOINT head
        {
          OFFSET -0.24384 7.07133 1.2192
          CHANNELS 3 Zrotation Xrotation Yrotation
          JOINT leftEye
          {
            OFFSET 4.14528 8.04674 8.04672
            CHANNELS 3 Zrotation Xrotation Yrotation
            End Site
            {
              OFFSET 1 0 0
            }
          }
          JOINT rightEye
          {
            OFFSET -3.6576 8.04674 8.04672
            CHANNELS 3 Zrotation Xrotation Yrotation
            End Site
            {
              OFFSET 1 0 0
            }
          }
        }
      }
      JOINT rCollar
      {
        OFFSET -2.68224 19.2634 -4.8768
        CHANNELS 3 Zrotation Xrotation Yrotation
        JOINT rShldr
        {
          OFFSET -8.77824 -1.95073 1.46304
          CHANNELS 3 Zrotation Xrotation Yrotation
          JOINT rForeArm
          {
            OFFSET -28.1742 -1.7115 0.48768
            CHANNELS 3 Zrotation Xrotation Yrotation
            JOINT rHand
            {
              OFFSET -22.5879 0.773209 7.07136
              CHANNELS 3 Zrotation Xrotation Yrotation
              JOINT rThumb1
              {
                OFFSET -1.2192 -0.487915 3.41376
                CHANNELS 3 Zrotation Xrotation Yrotation
                JOINT rThumb2
                {
                  OFFSET -3.37035 -0.52449 3.41376
                  CHANNELS 3 Zrotation Xrotation Yrotation
                  End Site
                  {
                    OFFSET -1.78271 -1.18214 1.43049
                  }
                }
              }
              JOINT rIndex1
              {
                OFFSET -7.75947 0.938293 5.60832
                CHANNELS 3 Zrotation Xrotation Yrotation
                JOINT rIndex2
                {
                  OFFSET -2.54057 -0.884171 1.56538
                  CHANNELS 3 Zrotation Xrotation Yrotation
                  End Site
                  {
                    OFFSET -1.62519 -0.234802 1.16502
                  }
                }
              }
              JOINT rMid1
              {
                OFFSET -8.24714 1.18213 3.41376
                CHANNELS 3 Zrotation Xrotation Yrotation
                JOINT rMid2
                {
                  OFFSET -3.10165 -0.590103 1.0647
                  CHANNELS 3 Zrotation Xrotation Yrotation
                  End Site
                  {
                    OFFSET -2.48547 -0.328903 0.83742
                  }
                }
              }
              JOINT rRing1
              {
                OFFSET -8.82822 0.546677 1.51678
                CHANNELS 3 Zrotation Xrotation Yrotation
                JOINT rRing2
                {
                  OFFSET -2.60934 -0.819778 -0.0198488
                  CHANNELS 3 Zrotation Xrotation Yrotation
                  End Site
                  {
                    OFFSET -2.33842 -0.294052 0.168128
                  }
                }
              }
              JOINT rPinky1
              {
                OFFSET -8.27202 -0.0477905 -0.4584
                CHANNELS 3 Zrotation Xrotation Yrotation
                JOINT rPinky2
                {
                  OFFSET -1.82734 -0.647385 -0.700984
                  CHANNELS 3 Zrotation Xrotation Yrotation
                  End Site
                  {
                    OFFSET -1.69225 -0.51767 -0.607171
                  }
                }
              }
            }
          }
        }
      }
      JOINT lCollar
      {
        OFFSET 2.68224 19.2634 -4.8768
        CHANNELS 3 Zrotation Xrotation Yrotation
        JOINT lShldr
        {
          OFFSET 8.77824 -1.95073 1.46304
          CHANNELS 3 Zrotation Xrotation Yrotation
          JOINT lForeArm
          {
            OFFSET 28.1742 -1.7115 0.48768
            CHANNELS 3 Zrotation Xrotation Yrotation
            JOINT lHand
            {
              OFFSET 22.5879 0.773209 7.07136
              CHANNELS 3 Zrotation Xrotation Yrotation
              JOINT lThumb1
              {
                OFFSET 1.2192 -0.487915 3.41376
                CHANNELS 3 Zrotation Xrotation Yrotation
                JOINT lThumb2
                {
                  OFFSET 3.37035 -0.52449 3.41376
                  CHANNELS 3 Zrotation Xrotation Yrotation
                  End Site
                  {
                    OFFSET 1.78271 -1.18214 1.43049
                  }
                }
              }
              JOINT lIndex1
              {
                OFFSET 7.75947 0.938293 5.60832
                CHANNELS 3 Zrotation Xrotation Yrotation
                JOINT lIndex2
                {
                  OFFSET 2.54057 -0.884171 1.56538
                  CHANNELS 3 Zrotation Xrotation Yrotation
                  End Site
                  {
                    OFFSET 1.62519 -0.234802 1.16502
                  }
                }
              }
              JOINT lMid1
              {
                OFFSET 8.24714 1.18213 3.41376
                CHANNELS 3 Zrotation Xrotation Yrotation
                JOINT lMid2
                {
                  OFFSET 3.10165 -0.590103 1.0647
                  CHANNELS 3 Zrotation Xrotation Yrotation
                  End Site
                  {
                    OFFSET 2.48547 -0.328903 0.83742
                  }
                }
              }
              JOINT lRing1
              {
                OFFSET 8.82822 0.546677 1.51678
                CHANNELS 3 Zrotation Xrotation Yrotation
                JOINT lRing2
                {
                  OFFSET 2.60934 -0.819778 -0.0198488
                  CHANNELS 3 Zrotation Xrotation Yrotation
                  End Site
                  {
                    OFFSET 2.33842 -0.294052 0.168128
                  }
                }
              }
              JOINT lPinky1
              {
                OFFSET 8.27202 -0.0477905 -0.4584
                CHANNELS 3 Zrotation Xrotation Yrotation
                JOINT lPinky2
                {
                  OFFSET 1.82734 -0.647385 -0.700984
                  CHANNELS 3 Zrotation Xrotation Yrotation
                  End Site
                  {
                    OFFSET 1.69225 -0.51767 -0.607171
                  }
                }
              }
            }
          }
        }
      }
    }
  }
  JOINT rButtock
  {
    OFFSET -8.77824 4.35084 1.2192
    CHANNELS 3 Zrotation Xrotation Yrotation
    JOINT rThigh
    {
      OFFSET 0 -1.70687 -2.19456
      CHANNELS 3 Zrotation Xrotation Yrotation
      JOINT rShin
      {
        OFFSET 0 -36.8199 0.73152
        CHANNELS 3 Zrotation Xrotation Yrotation
        JOINT rFoot
        {
          OFFSET 0.73152 -45.1104 -5.12064
          CHANNELS 3 Zrotation Xrotation Yrotation
          End Site
          {
            OFFSET -1.1221 -3.69964 12.103
          }
        }
      }
    }
  }
  JOINT lButtock
  {
    OFFSET 8.77824 4.35084 1.2192
    CHANNELS 3 Zrotation Xrotation Yrotation
    JOINT lThigh
    {
      OFFSET 0 -1.70687 -2.19456
      CHANNELS 3 Zrotation Xrotation Yrotation
      JOINT lShin
      {
        OFFSET 0 -36.8199 0.73152
        CHANNELS 3 Zrotation Xrotation Yrotation
        JOINT lFoot
        {
          OFFSET -0.73152 -45.1104 -5.12064
          CHANNELS 3 Zrotation Xrotation Yrotation
          End Site
          {
            OFFSET 1.1221 -3.69964 12.103
          }
        }
      }
    }
  }
}
MOTION
Frames:	5
Frame Time:	0.03333
0.1408000010997057 59.350597858428955 0.1888000057078898 2.0489041805267334 20.16669464111328 7.000010967254639 -8.43348217010498 9.827301025390625 2.023719072341919 4.176906108856201 -9.68671703338623 0.8229472637176514 -8.194132804870605 16.230392456054688 -8.232078552246094 12.65489673614502 -25.441795349121094 -13.384297370910645 -0.0 0.0 -0.0 -0.0 0.0 -0.0 -0.0 0.0 -0.0 38.039398193359375 37.127994537353516 15.482991218566895 -28.40140151977539 -34.3058967590332 74.19829559326172 -0.014841347932815552 0.8341414332389832 0.11714506149291992 -0.0 0.0 -0.0 -0.0 0.0 -0.0 -0.0 0.0 -0.0 7.730876445770264 5.474894046783447 0.41732466220855713 -0.0 0.0 -0.0 2.9054994583129883 0.9650753736495972 0.10300876200199127 -0.0 0.0 -0.0 10.278595924377441 0.7317469120025635 0.026285571977496147 -0.0 0.0 -0.0 2.221662998199463 -0.7335850596427917 -0.20831838250160217 -0.0 0.0 -0.0 -56.470882415771484 56.6934928894043 -17.341100692749023 27.875097274780273 -41.02820587158203 -85.78430938720703 1.9170235395431519 -36.21845626831055 5.902334690093994 -0.0 0.0 -0.0 -0.0 0.0 -0.0 -0.0 0.0 -0.0 -7.730876445770264 5.474894046783447 -0.41732466220855713 -0.0 0.0 -0.0 -2.9054994583129883 0.9650753736495972 -0.10300876200199127 -0.0 0.0 -0.0 -10.278595924377441 0.7317469120025635 -0.026285571977496147 -0.0 0.0 -0.0 -2.221662998199463 -0.7335850596427917 0.20831838250160217 -0.0 0.0 -0.0 -39.375701904296875 -57.62430191040039 -38.18000793457031 -1.359010934829712 63.753597259521484 1.777848243713379 2.3956830501556396 -0.8789640665054321 19.875890731811523 -0.0 0.0 -0.0 13.857908248901367 -0.0738474577665329 2.953538417816162 0.05847253277897835 42.20159912109375 -2.523768901824951 11.004866600036621 -19.331710815429688 31.958200454711914
0.22779999999329448 59.15979743003845 0.41220000712201 2.301290273666382 19.41330909729004 6.957884311676025 -8.686635971069336 9.686308860778809 1.9900444746017456 4.241950988769531 -9.635323524475098 0.8113541007041931 -7.759869575500488 16.325298309326172 -8.120683670043945 11.893197059631348 -25.64299964904785 -13.325596809387207 -0.0 0.0 -0.0 -0.0 0.0 -0.0 -0.0 0.0 -0.0 38.04430389404297 36.97459411621094 15.776994705200195 -28.382999420166016 -33.97080612182617 73.6520004272461 -0.0009268758585676551 0.8708803057670593 0.12195713073015213 -0.0 0.0 -0.0 -0.0 0.0 -0.0 -0.0 0.0 -0.0 7.730876445770264 5.474894046783447 0.41732466220855713 -0.0 0.0 -0.0 2.9054994583129883 0.9650753736495972 0.10300876200199127 -0.0 0.0 -0.0 10.278595924377441 0.7317469120025635 0.026285571977496147 -0.0 0.0 -0.0 2.221662998199463 -0.7335850596427917 -0.20831838250160217 -0.0 0.0 -0.0 -56.53510284423828 56.68830108642578 -17.474395751953125 27.89049530029297 -40.956905364990234 -85.65419006347656 1.9107106924057007 -36.03929901123047 5.869114398956299 -0.0 0.0 -0.0 -0.0 0.0 -0.0 -0.0 0.0 -0.0 -7.730876445770264 5.474894046783447 -0.41732466220855713 -0.0 0.0 -0.0 -2.9054994583129883 0.9650753736495972 -0.10300876200199127 -0.0 0.0 -0.0 -10.278595924377441 0.7317469120025635 -0.026285571977496147 -0.0 0.0 -0.0 -2.221662998199463 -0.7335850596427917 0.20831838250160217 -0.0 0.0 -0.0 -40.1154899597168 -57.91858673095703 -39.31789779663086 -1.4233708381652832 64.43559265136719 1.8219131231307983 2.3589813709259033 -1.0281225442886353 19.741891860961914 -0.0 0.0 -0.0 13.309317588806152 0.7318518161773682 3.6925883293151855 0.04310741275548935 41.68330383300781 -2.537355422973633 11.55161190032959 -19.561193466186523 32.908203125
0.25759999989531934 58.990299701690674 0.6447000079788268 2.588789463043213 18.825891494750977 6.900891304016113 -8.985372543334961 9.48988151550293 2.012554883956909 4.3295369148254395 -9.551681518554688 0.8153300881385803 -7.616522789001465 16.250402450561523 -8.011828422546387 11.583292007446289 -25.378795623779297 -13.19029712677002 -0.0 0.0 -0.0 -0.0 0.0 -0.0 -0.0 0.0 -0.0 38.294498443603516 36.92290115356445 15.810894966125488 -28.366302490234375 -33.70519256591797 73.21719360351562 -0.0010240954579785466 0.9152498841285706 0.12821653485298157 -0.0 0.0 -0.0 -0.0 0.0 -0.0 -0.0 0.0 -0.0 7.730876445770264 5.474894046783447 0.41732466220855713 -0.0 0.0 -0.0 2.9054994583129883 0.9650753736495972 0.10300876200199127 -0.0 0.0 -0.0 10.278595924377441 0.7317469120025635 0.026285571977496147 -0.0 0.0 -0.0 2.221662998199463 -0.7335850596427917 -0.20831838250160217 -0.0 0.0 -0.0 -56.52020263671875 56.79060745239258 -17.59449577331543 27.892398834228516 -40.947486877441406 -85.6369857788086 1.931897521018982 -36.075950622558594 5.882537841796875 -0.0 0.0 -0.0 -0.0 0.0 -0.0 -0.0 0.0 -0.0 -7.730876445770264 5.474894046783447 -0.41732466220855713 -0.0 0.0 -0.0 -2.9054994583129883 0.9650753736495972 -0.10300876200199127 -0.0 0.0 -0.0 -10.278595924377441 0.7317469120025635 -0.026285571977496147 -0.0 0.0 -0.0 -2.221662998199463 -0.7335850596427917 0.20831838250160217 -0.0 0.0 -0.0 -40.4927978515625 -58.24370574951172 -39.59458541870117 -1.4833710193634033 65.0755844116211 1.8767013549804688 2.4161465167999268 -1.1491631269454956 20.13519859313965 -0.0 0.0 -0.0 12.947009086608887 1.5381957292556763 4.3963727951049805 0.02806231379508972 41.105098724365234 -2.543818235397339 12.032302856445312 -19.874494552612305 33.61250305175781
0.3280000004451722 58.75700116157532 0.8101000101305544 2.6430256366729736 18.306108474731445 6.814098358154297 -9.261584281921387 9.306441307067871 1.9867552518844604 4.416116714477539 -9.472417831420898 0.8053382039070129 -7.565964698791504 16.121196746826172 -7.91951322555542 11.389899253845215 -24.990205764770508 -13.066104888916016 -0.0 0.0 -0.0 -0.0 0.0 -0.0 -0.0 0.0 -0.0 38.6432991027832 36.923099517822266 15.7218017578125 -28.35070037841797 -33.482181549072266 72.8511962890625 -0.0012446121545508504 1.0093964338302612 0.14129066467285156 -0.0 0.0 -0.0 -0.0 0.0 -0.0 -0.0 0.0 -0.0 7.730876445770264 5.474894046783447 0.41732466220855713 -0.0 0.0 -0.0 2.9054994583129883 0.9650753736495972 0.10300876200199127 -0.0 0.0 -0.0 10.278595924377441 0.7317469120025635 0.026285571977496147 -0.0 0.0 -0.0 2.221662998199463 -0.7335850596427917 -0.20831838250160217 -0.0 0.0 -0.0 -56.42050552368164 56.9315071105957 -17.757001876831055 27.892690658569336 -40.945796966552734 -85.63369750976562 1.924721360206604 -36.14920425415039 5.8928985595703125 -0.0 0.0 -0.0 -0.0 0.0 -0.0 -0.0 0.0 -0.0 -7.730876445770264 5.474894046783447 -0.41732466220855713 -0.0 0.0 -0.0 -2.9054994583129883 0.9650753736495972 -0.10300876200199127 -0.0 0.0 -0.0 -10.278595924377441 0.7317469120025635 -0.026285571977496147 -0.0 0.0 -0.0 -2.221662998199463 -0.7335850596427917 0.20831838250160217 -0.0 0.0 -0.0 -40.84780502319336 -58.51329040527344 -39.717498779296875 -1.5439467430114746 65.68640899658203 1.9334979057312012 2.52690052986145 -1.3489911556243896 20.580595016479492 -0.0 0.0 -0.0 12.682110786437988 2.2405245304107666 4.956143379211426 0.015048673376441002 40.60389709472656 -2.55245041847229 12.504791259765625 -20.231103897094727 34.23560333251953
0.3911999985575676 58.51680040359497 0.9908000123687088 2.8207240104675293 18.100202560424805 6.71799898147583 -9.469629287719727 9.22019100189209 1.802969217300415 4.483071804046631 -9.431536674499512 0.7508167028427124 -7.495737075805664 15.999493598937988 -7.841494560241699 11.08580207824707 -24.718996047973633 -12.985603332519531 -0.0 0.0 -0.0 -0.0 0.0 -0.0 -0.0 0.0 -0.0 38.96250534057617 36.95489501953125 15.629997253417969 -28.33619499206543 -33.29541015625 72.54691314697266 -0.0018704532412812114 1.23447847366333 0.1736196130514145 -0.0 0.0 -0.0 -0.0 0.0 -0.0 -0.0 0.0 -0.0 7.730876445770264 5.474894046783447 0.41732466220855713 -0.0 0.0 -0.0 2.9054994583129883 0.9650753736495972 0.10300876200199127 -0.0 0.0 -0.0 10.278595924377441 0.7317469120025635 0.026285571977496147 -0.0 0.0 -0.0 2.221662998199463 -0.7335850596427917 -0.20831838250160217 -0.0 0.0 -0.0 -56.19340133666992 57.05519485473633 -18.028095245361328 27.900598526000977 -40.90909957885742 -85.5667953491211 1.9228639602661133 -36.13469696044922 5.889743804931641 -0.0 0.0 -0.0 -0.0 0.0 -0.0 -0.0 0.0 -0.0 -7.730876445770264 5.474894046783447 -0.41732466220855713 -0.0 0.0 -0.0 -2.9054994583129883 0.9650753736495972 -0.10300876200199127 -0.0 0.0 -0.0 -10.278595924377441 0.7317469120025635 -0.026285571977496147 -0.0 0.0 -0.0 -2.221662998199463 -0.7335850596427917 0.20831838250160217 -0.0 0.0 -0.0 -41.51179122924805 -58.63479232788086 -40.24448776245117 -1.610272765159607 66.28449249267578 1.9873552322387695 2.6555416584014893 -1.694864273071289 20.719501495361328 -0.0 0.0 -0.0 12.429887771606445 2.7593348026275635 5.204429626464844 0.0041912756860256195 40.29939651489258 -2.569906234741211 13.042083740234375 -20.619110107421875 34.92979431152344
